<svg width="115" height="115" viewBox="0 0 115 115" fill="none" xmlns="http://www.w3.org/2000/svg">
<circle cx="57.5" cy="57.5" r="57.5" fill="#F5FAFF"/>
<g clip-path="url(#clip0_371_515)">
<path d="M72.2984 86.4567C72.8805 84.5788 73.6817 82.8543 75.0025 81.4491C75.9829 80.4862 77.013 79.5753 78.0885 78.7199C78.7926 78.1127 79.4749 78.2379 80.2136 78.7387C82.7422 80.3881 84.6571 82.8244 85.6625 85.6711C85.7501 85.9121 85.844 86.15 85.9285 86.3659C87.243 85.8214 88.4887 85.1516 89.8188 84.8011C91.3315 84.4392 92.8695 84.1933 94.4196 84.0656C95.3804 83.9623 95.7873 84.4317 95.7779 85.4207C95.7743 89.1794 94.4942 92.8255 92.1474 95.7615C91.969 95.9868 91.7874 96.2059 91.5684 96.4782C91.7687 96.6097 91.9439 96.7411 92.1317 96.8538C93.4917 97.6855 94.6393 98.8224 95.4837 100.174C95.6542 100.405 95.7463 100.684 95.7463 100.971C95.7463 101.258 95.6542 101.537 95.4837 101.768C94.6597 103.102 93.5287 104.22 92.1849 105.029C91.9798 105.124 91.8094 105.28 91.6972 105.477C91.585 105.673 91.5367 105.899 91.559 106.124C91.5903 108.572 91.5746 111.019 91.559 113.467C91.559 114.659 91.2147 115.006 90.0348 115.006H21.5367C20.3442 115.006 20.0062 114.668 20.0062 113.479C20.0062 110.381 20.0062 107.282 20.0062 104.187C20.0134 100.393 21.4515 96.741 24.0333 93.9608C26.6151 91.1806 30.1505 89.4766 33.9337 89.189C36.9164 88.948 39.8802 88.6068 42.8692 88.297C43.6294 88.2523 44.3494 87.9405 44.9021 87.4165C45.4547 86.8925 45.8044 86.1901 45.8894 85.4333C46.0991 84.0687 46.2712 82.701 46.387 81.327C46.3917 81.1458 46.36 80.9655 46.2939 80.7967C46.2278 80.6279 46.1286 80.4741 46.0021 80.3443C44.497 78.9771 43.2687 77.3333 42.3841 75.5025C42.2227 75.1801 42.0043 74.8895 41.7393 74.645C40.0211 73.008 38.5578 71.1228 37.3983 69.0521C37.2049 68.7201 36.9397 68.4357 36.6222 68.2195C35.6 67.5471 34.8383 66.5456 34.4632 65.381C34.0881 64.2164 34.1221 62.9586 34.5596 61.816C34.6781 61.4801 34.7198 61.1218 34.6817 60.7676C33.94 54.2357 35.3796 48.2673 39.4953 43.1C49.0379 31.1099 66.6773 32.681 74.0417 46.1359C76.5255 50.6133 77.5125 55.7676 76.8585 60.8458C76.8265 61.1745 76.8693 61.5062 76.9836 61.816C77.4278 62.969 77.4619 64.2397 77.0801 65.4148C76.6982 66.59 75.9238 67.5979 74.8867 68.2696C74.5929 68.473 74.3481 68.7392 74.17 69.0489C73.0085 71.1461 71.5306 73.0515 69.7883 74.6982C69.5451 74.928 69.3448 75.1993 69.1968 75.4994C68.3126 77.3332 67.0831 78.9792 65.5756 80.3474C65.3227 80.6106 65.1824 80.962 65.1844 81.327C65.222 82.1814 65.1124 83.2362 65.5663 83.8308C65.9763 84.3598 67.056 84.3598 67.8353 84.6133C68.6147 84.8668 69.3689 85.1015 70.1138 85.4082C70.8587 85.7149 71.4909 86.0592 72.2984 86.4567ZM63.0405 82.1689C58.1769 84.6227 53.3602 84.5976 48.5309 82.1689C48.3901 83.2956 48.2524 84.3003 48.1397 85.2987C47.8048 88.3001 45.9489 90.178 42.9537 90.4972C39.9585 90.8165 36.8475 91.1232 33.7897 91.4017C28.031 91.915 23.0077 96.6191 22.3911 102.387C22.1032 105.066 22.2534 107.789 22.2127 110.493C22.2127 111.241 22.2127 111.989 22.2127 112.753H32.0527V99.921C32.0527 98.5814 32.35 98.2872 33.7115 98.2872H63.5382C63.8177 98.3263 64.1026 98.2873 64.3613 98.1745C65.1375 97.6331 65.8667 97.0291 66.6304 96.4344C66.3894 96.1214 66.1421 95.8272 65.9074 95.5174C63.7658 92.7295 62.5715 89.3299 62.4991 85.8151C62.4991 85.1641 62.4334 84.4943 63.1407 84.1031C63.1833 84.0632 63.2168 84.0146 63.2389 83.9606C63.2611 83.9066 63.2713 83.8485 63.269 83.7901C63.1939 83.2612 63.1094 82.7573 63.0405 82.1689ZM46.9347 59.7285L41.248 60.6674C41.2536 61.0572 41.285 61.4461 41.3419 61.8317C42.1055 65.4434 42.7815 69.074 43.6861 72.6513C44.4497 75.6872 46.2744 78.047 48.9347 79.7653C56.5557 84.679 66.2517 80.2191 68.0857 71.9596C68.5364 69.9284 68.9683 67.8909 69.4096 65.8628C69.6381 64.805 69.8697 63.7471 70.07 62.8301L64.6242 60.5547C64.2512 60.9788 63.7873 61.3133 63.2671 61.5333C62.7469 61.7533 62.1837 61.8532 61.6196 61.8254C60.4522 61.7879 59.3224 61.5782 58.5118 60.6236C58.3002 60.4054 58.1837 60.1123 58.1878 59.8085C58.1919 59.5046 58.3163 59.2148 58.5337 59.0024C58.9718 58.5799 59.5978 58.6206 60.1267 59.1151C60.9092 59.8349 62.0953 59.8349 63.0531 59.0775C61.0771 57.1835 59.623 54.812 58.831 52.192C56.1957 55.7631 52.6654 57.7912 48.6217 59.1714C49.6921 59.8537 50.6686 59.7973 51.4886 59.0431C51.6659 58.8468 51.9109 58.7248 52.1744 58.7016C52.438 58.6784 52.7005 58.7556 52.9095 58.9179C53.0279 58.9903 53.1301 59.0864 53.2095 59.2003C53.2889 59.3141 53.3439 59.4432 53.371 59.5793C53.398 59.7155 53.3966 59.8558 53.3667 59.9913C53.3368 60.1269 53.2792 60.2548 53.1974 60.367C52.9447 60.761 52.5957 61.0842 52.1834 61.3059C51.549 61.6434 50.8452 61.8297 50.127 61.8503C49.4087 61.871 48.6954 61.7253 48.0427 61.4248C47.3009 61.0931 46.7657 60.6424 46.9347 59.7285ZM34.2623 112.75H77.2778V104.641C77.0243 104.794 76.8522 104.904 76.6769 105.007C73.447 106.907 70.1044 107.104 66.7712 105.414C64.7118 104.371 62.9779 102.91 62.3363 100.506H34.2623V112.75ZM36.7505 58.9367C38.9664 58.8741 40.2496 57.522 41.5954 55.9634C46.3714 50.4393 52.1896 46.5021 59.435 44.8997C61.0035 44.5439 62.5484 44.0913 64.0608 43.5445C64.5705 43.3748 65.04 43.1023 65.44 42.7437C65.84 42.3851 66.1621 41.9482 66.3863 41.46C66.4438 41.3759 66.4822 41.2802 66.4988 41.1797C66.5154 41.0792 66.5098 40.9762 66.4823 40.8781C66.4549 40.7799 66.4063 40.689 66.3399 40.6116C66.2736 40.5343 66.1911 40.4724 66.0983 40.4303C62.0797 37.7231 57.6761 36.6527 52.8907 37.4352C42.697 39.1127 35.9806 49.009 36.7505 58.9367ZM79.0399 99.6236C79.1118 99.5995 79.1819 99.5703 79.2496 99.536C85.7188 95.4016 85.8816 85.3081 79.5626 80.9452C79.1275 80.6322 78.8772 80.7824 78.5485 81.0391C75.6504 83.3144 74.0542 86.2846 74.0041 89.9714C73.9634 94.0839 75.7756 97.2701 79.0524 99.6362L79.0399 99.6236ZM58.8748 47.2501C59.3224 47.6507 59.6698 47.9606 60.0109 48.2735C62.3864 50.4644 65.175 52.0293 67.8666 53.7444C69.6944 54.9149 71.5379 56.1324 72.4893 58.2356C72.5513 58.3378 72.6497 58.4127 72.7647 58.4453C73.4282 58.655 74.0917 58.8522 74.7584 59.0525C75.666 53.9854 72.0449 44.546 68.4018 42.4835C67.1875 44.4709 66.0138 45.3754 63.5444 46.0827C62.0484 46.5115 60.5367 46.8432 58.8748 47.2501ZM79.5907 103.429V112.769H89.3306V106.265C85.6062 107.029 82.4044 106.09 79.5907 103.429ZM75.2466 99.2042C72.7616 96.2278 71.613 92.9447 71.8477 89.1702C71.8416 89.073 71.8147 88.9783 71.7688 88.8925C71.7229 88.8066 71.6591 88.7316 71.5817 88.6726C69.5647 87.2913 67.2185 86.4675 64.7807 86.2846C64.3112 91.3235 70.1201 98.5439 75.2466 99.2042ZM93.537 86.2846C91.2559 86.458 89.0489 87.1726 87.0991 88.369C86.8684 88.4736 86.6771 88.6488 86.5527 88.8694C86.4284 89.09 86.3775 89.3444 86.4074 89.5959C86.5696 92.9346 85.4753 96.213 83.3402 98.7849C83.2463 98.9007 83.1681 99.0258 83.0585 99.1823C87.5372 98.2653 93.0863 93.3735 93.5276 86.2846H93.537ZM57.9985 49.491C57.6874 49.2236 57.4005 48.9293 57.1409 48.6116C56.7028 47.9856 56.2239 48.0701 55.6105 48.333C51.7451 49.9751 48.2202 52.324 45.2165 55.2592C44.3183 56.1449 43.4857 57.0995 42.6251 58.0196L42.7878 58.2231C48.9128 57.1965 54.5119 55.2404 57.9985 49.491ZM76.9336 101.915C73.9143 101.483 71.064 100.257 68.6741 98.3623C68.5812 98.3054 68.4767 98.2702 68.3683 98.2594C68.2599 98.2486 68.1505 98.2623 68.0482 98.2997C66.7698 98.8729 65.6755 99.7895 64.8871 100.948C67.6475 105.01 73.7694 105.539 76.9336 101.915ZM81.3591 101.915C81.4029 102.043 81.406 102.102 81.4404 102.137C84.5076 105.36 90.4949 104.954 93.08 101.342C93.1415 101.221 93.1714 101.087 93.167 100.952C93.1626 100.817 93.1241 100.685 93.055 100.569C92.163 99.7895 91.2335 99.054 90.2758 98.3561C90.1574 98.3043 90.0282 98.2823 89.8994 98.2921C89.7706 98.302 89.6462 98.3433 89.5371 98.4124C87.1646 100.273 84.3441 101.477 81.3591 101.902V101.915ZM70.239 60.3951C70.4988 59.2966 70.2797 58.3889 69.3721 57.6816C68.6585 57.1214 68.0262 56.4485 67.272 55.954C65.2533 54.6364 63.2033 53.3876 61.1689 52.1232C61.7667 55.0745 65.1688 59.4249 70.239 60.3951ZM72.6301 60.7081C72.2546 62.7404 71.88 64.7716 71.5065 66.8018C72.3146 66.952 73.1493 66.7751 73.8269 66.3099C74.5045 65.8448 74.9696 65.1295 75.1199 64.3214C75.2701 63.5134 75.0932 62.6787 74.628 62.0011C74.1629 61.3234 73.4476 60.8583 72.6395 60.7081H72.6301ZM40.043 66.7955C39.6674 64.7674 39.2929 62.7404 38.9194 60.7144C38.1202 60.8709 37.415 61.3364 36.957 62.0097C36.4989 62.6831 36.325 63.5099 36.473 64.3108C36.6209 65.1116 37.0788 65.8217 37.7473 66.2869C38.4157 66.7521 39.2406 66.9349 40.043 66.7955Z" fill="#2E6F2B"/>
<path d="M55.6731 74.547C54.6716 74.234 53.6231 74.0149 52.6904 73.5642C52.1552 73.3045 51.7202 72.713 51.3947 72.1778C50.9503 71.4391 51.21 70.8038 52.005 70.4814C53.2131 69.9932 54.3743 69.5957 55.7858 69.5957C57.094 69.6295 58.3812 69.9332 59.5665 70.4877C60.3552 70.8007 60.5493 71.4266 60.1737 72.2059C59.6166 73.3546 58.6088 73.9117 57.4289 74.1777C56.8749 74.2997 56.3022 74.331 55.7357 74.403L55.6731 74.547Z" fill="#2E6F2B"/>
<path d="M56.0049 66.1609C56.5463 66.1891 57.0064 66.1015 57.3538 66.2611C57.7012 66.4207 58.1331 66.7931 58.1863 67.1249C58.1902 67.3352 58.1454 67.5436 58.0552 67.7336C57.9651 67.9237 57.8321 68.0903 57.6668 68.2203C56.9375 68.7336 54.9251 68.4363 54.4118 67.7039C54.0554 67.1808 53.8586 66.5654 53.8453 65.9325C53.9022 65.0005 54.0319 64.0743 54.2334 63.1626C54.3524 62.4177 54.8813 61.9764 55.4853 62.0766C56.0894 62.1767 56.4806 62.7025 56.3867 63.4819C56.2928 64.3363 56.1551 65.2032 56.0049 66.1609Z" fill="#2E6F2B"/>
</g>
<defs>
<clipPath id="clip0_371_515">
<rect width="75.7779" height="80" fill="white" transform="translate(20 35)"/>
</clipPath>
</defs>
</svg>
